# xmcd
#
# Track frame offsets: 
#        150
#        17082
#        32497
#        52455
#        63962
#        86675
#        98330
#        116055
#        135795
#        148435
#        165100
#        184902
#
# Disc length: 2680 seconds
#
# Revision: 2
# Processed by: cddbd v1.5.1PL0 Copyright (c) Steve Scherf et al.
# Submitted via: ExactAudioCopy v0.95a5
#
DISCID=9b0a760c
DTITLE=Sandy Carroll - Memphis Rain
DYEAR=1997
DGENRE=Blues
TTITLE0=Forecast Blues
TTITLE1=Too Many Hats
TTITLE2=Memphis Rain
TTITLE3=While You're Up
TTITLE4=Help Me Bear It All
TTITLE5=Honey Lovin' Gumbo
TTITLE6=Blues Thang
TTITLE7=Just As I Am
TTITLE8=Feel Like Love
TTITLE9=Good Line
TTITLE10=Memphis
TTITLE11=Bad Dog Boogie
EXTD=
EXTT0=
EXTT1=
EXTT2=
EXTT3=
EXTT4=
EXTT5=
EXTT6=
EXTT7=
EXTT8=
EXTT9=
EXTT10=
EXTT11=
PLAYORDER=
